<svg width="43" height="41" viewBox="0 0 43 41" fill="none" xmlns="http://www.w3.org/2000/svg">
<path d="M21.7695 28.1875V31.775" stroke="#292D32" stroke-width="1.5" stroke-linecap="round" stroke-linejoin="round"/>
<path d="M12.8105 37.5833H30.7272V35.8749C30.7272 33.9958 29.1147 32.4583 27.1439 32.4583H16.3939C14.423 32.4583 12.8105 33.9958 12.8105 35.8749V37.5833Z" fill="#FC9A02" stroke="#292D32" stroke-width="1.5" stroke-miterlimit="10"/>
<path d="M11.0195 37.5833H32.5195" stroke="#292D32" stroke-width="1.5" stroke-linecap="round" stroke-linejoin="round"/>
<path d="M21.5007 27.3334C14.5669 27.3334 8.95898 21.9863 8.95898 15.3751V10.2501C8.95898 6.47466 12.1661 3.41675 16.1257 3.41675H26.8757C30.8352 3.41675 34.0423 6.47466 34.0423 10.2501V15.3751C34.0423 21.9863 28.4344 27.3334 21.5007 27.3334Z" fill="#FC9A02" stroke="#292D32" stroke-width="1.5" stroke-linecap="round" stroke-linejoin="round"/>
<path d="M9.79971 19.902C8.45596 19.492 7.27346 18.7403 6.3418 17.852C4.7293 16.1437 3.6543 14.0937 3.6543 11.702C3.6543 9.31032 5.62513 7.43115 8.13346 7.43115H9.29805C8.93971 8.21699 8.76055 9.08824 8.76055 9.99365V15.1187C8.76055 16.827 9.1368 18.4328 9.79971 19.902Z" stroke="#292D32" stroke-width="1.5" stroke-linecap="round" stroke-linejoin="round"/>
<path d="M33.1992 19.902C34.543 19.492 35.7255 18.7403 36.6571 17.852C38.2696 16.1437 39.3446 14.0937 39.3446 11.702C39.3446 9.31032 37.3738 7.43115 34.8655 7.43115H33.7009C34.0592 8.21699 34.2384 9.08824 34.2384 9.99365V15.1187C34.2384 16.827 33.8621 18.4328 33.1992 19.902Z" stroke="#292D32" stroke-width="1.5" stroke-linecap="round" stroke-linejoin="round"/>
</svg>
