<svg width="535" height="421" viewBox="0 0 535 421" fill="none" xmlns="http://www.w3.org/2000/svg">
<g clip-path="url(#clip0_687_3845)" filter="url(#filter0_d_687_3845)">
<rect width="523" height="409" transform="translate(4)" fill="#F4F2F2"/>
<line x1="64.5" y1="-2.18557e-08" x2="64.5" y2="737" stroke="#ABCED4"/>
<line x1="5" y1="313.5" x2="594" y2="313.5" stroke="#B8F0F3"/>
<line x1="5" y1="154.5" x2="594" y2="154.5" stroke="#B8F0F3"/>
<line x1="5" y1="329.5" x2="594" y2="329.5" stroke="#B8F0F3"/>
<line x1="5" y1="139.5" x2="594" y2="139.5" stroke="#B8F0F3"/>
<line x1="5" y1="91.5" x2="594" y2="91.5" stroke="#B8F0F3"/>
<line x1="5" y1="376.5" x2="594" y2="376.5" stroke="#B8F0F3"/>
<line x1="5" y1="107.5" x2="594" y2="107.5" stroke="#B8F0F3"/>
<line x1="5" y1="392.5" x2="594" y2="392.5" stroke="#B8F0F3"/>
<line x1="5" y1="123.5" x2="594" y2="123.5" stroke="#B8F0F3"/>
<line x1="5" y1="408.5" x2="594" y2="408.5" stroke="#B8F0F3"/>
<line x1="5" y1="76.5" x2="594" y2="76.5" stroke="#B8F0F3"/>
<line x1="5" y1="361.5" x2="594" y2="361.5" stroke="#B8F0F3"/>
<line x1="5" y1="60.5" x2="594" y2="60.5" stroke="#B8F0F3"/>
<line x1="5" y1="345.5" x2="594" y2="345.5" stroke="#B8F0F3"/>
<line x1="5" y1="44.5" x2="594" y2="44.5" stroke="#B8F0F3"/>
<line x1="5" y1="329.5" x2="594" y2="329.5" stroke="#B8F0F3"/>
<line x1="5" y1="170.5" x2="594" y2="170.5" stroke="#B8F0F3"/>
<line x1="5" y1="202.5" x2="578.001" y2="202.5" stroke="#B8F0F3"/>
<line x1="5" y1="218.5" x2="594" y2="218.5" stroke="#B8F0F3"/>
<line x1="5" y1="234.5" x2="594" y2="234.5" stroke="#B8F0F3"/>
<line x1="5" y1="250.5" x2="594" y2="250.5" stroke="#B8F0F3"/>
<line x1="5" y1="265.5" x2="594" y2="265.5" stroke="#B8F0F3"/>
<line x1="5" y1="281.5" x2="594" y2="281.5" stroke="#B8F0F3"/>
<line x1="5" y1="297.5" x2="594" y2="297.5" stroke="#B8F0F3"/>
<line x1="5" y1="186.5" x2="594" y2="186.5" stroke="#B8F0F3"/>
</g>
<defs>
<filter id="filter0_d_687_3845" x="0" y="0" width="535" height="421" filterUnits="userSpaceOnUse" color-interpolation-filters="sRGB">
<feFlood flood-opacity="0" result="BackgroundImageFix"/>
<feColorMatrix in="SourceAlpha" type="matrix" values="0 0 0 0 0 0 0 0 0 0 0 0 0 0 0 0 0 0 127 0" result="hardAlpha"/>
<feOffset dx="2" dy="6"/>
<feGaussianBlur stdDeviation="3"/>
<feComposite in2="hardAlpha" operator="out"/>
<feColorMatrix type="matrix" values="0 0 0 0 0.359456 0 0 0 0 0.35384 0 0 0 0 0.35384 0 0 0 1 0"/>
<feBlend mode="normal" in2="BackgroundImageFix" result="effect1_dropShadow_687_3845"/>
<feBlend mode="normal" in="SourceGraphic" in2="effect1_dropShadow_687_3845" result="shape"/>
</filter>
<clipPath id="clip0_687_3845">
<rect width="523" height="409" fill="white" transform="translate(4)"/>
</clipPath>
</defs>
</svg>
